<mxfile host="app.diagrams.net" modified="2022-09-02T05:15:35.095Z" agent="5.0 (Macintosh; Intel Mac OS X 10_15_7) AppleWebKit/537.36 (KHTML, like Gecko) Chrome/104.0.0.0 Safari/537.36" etag="JJIERuzk7iMcWEov9MYM" version="20.2.7" type="github">
  <diagram id="6a731a19-8d31-9384-78a2-239565b7b9f0" name="Page-1">
    <mxGraphModel dx="1351" dy="759" grid="1" gridSize="10" guides="1" tooltips="1" connect="1" arrows="1" fold="1" page="1" pageScale="1" pageWidth="1654" pageHeight="1169" background="none" math="0" shadow="0">
      <root>
        <mxCell id="0" />
        <mxCell id="1" parent="0" />
        <mxCell id="ycBOW7GdnXwQtTXTmGB2-2257" value="" style="rounded=1;whiteSpace=wrap;html=1;fillColor=#f5f5f5;strokeColor=#E6E6E6;fontColor=#333333;" vertex="1" parent="1">
          <mxGeometry x="80" y="90" width="280" height="230" as="geometry" />
        </mxCell>
        <mxCell id="ycBOW7GdnXwQtTXTmGB2-2258" value="" style="shape=image;verticalLabelPosition=bottom;labelBackgroundColor=default;verticalAlign=top;aspect=fixed;imageAspect=0;image=data:image/svg+xml,PHN2ZyB4bWxucz0iaHR0cDovL3d3dy53My5vcmcvMjAwMC9zdmciIHZpZXdCb3g9IjAgMCA4NC4xMyA5MS4yNSI+PHRpdGxlPkludGVybmV0PC90aXRsZT48ZyBkYXRhLW5hbWU9IkxheWVyIDIiIGlkPSJlYjIwMDg4NC05MGJjLTQxNjMtOWRiZS1lZTdmMzNjZjY2MTkiPjxnIGRhdGEtbmFtZT0iTGF5ZXIgMSIgaWQ9IjFhOWUzZTI4LWMwZGUtNGQyMy05ZjIwLTFjMTc1ZjAxMTVjYSI+PHBhdGggZD0iTTQyLjA2LDBhNy4xMiw3LjEyLDAsMCwwLTMsMTMuNTd2NC40OWMuODgtLjA4LDEuNzYtLjEzLDIuNjYtLjEzYTI3LjE5LDI3LjE5LDAsMCwxLDMuMzkuMjFWMTMuNTdBNy4xMiw3LjEyLDAsMCwwLDQyLjA2LDBabTMsOUEzLjU3LDMuNTcsMCwwLDEsMzguNSw3LjEyYTMuNCwzLjQsMCwwLDEsMC0uNDVzMC0uMDgsMC0uMTJhMy41NiwzLjU2LDAsMCwxLDcsMHMwLC4wOCwwLC4xMmEzLjQsMy40LDAsMCwxLDAsLjQ1QTMuNTMsMy41MywwLDAsMSw0NS4wOSw5WiIvPjxwYXRoIGQ9Ik00NS4wOSw3Ny42OFY3M2EyOS4yNSwyOS4yNSwwLDAsMS0zLjM5LjJjLS45LDAtMS43OCwwLTIuNjYtLjEydjQuNTlhNy4xMyw3LjEzLDAsMSwwLDYuMDUsMFptLTMsMTBhMy41NiwzLjU2LDAsMCwxLTMuNTYtMy41NiwzLjE5LDMuMTksMCwwLDEsMC0uNDVzMC0uMDgsMC0uMTJBMy42MywzLjYzLDAsMCwxLDM5LDgyLjI1YTMuNTYsMy41NiwwLDAsMSw2LjA1LDAsMy42MywzLjYzLDAsMCwxLC40OSwxLjMxczAsLjA4LDAsLjEyYTMuMTksMy4xOSwwLDAsMSwwLC40NUEzLjU2LDMuNTYsMCwwLDEsNDIuMDYsODcuNjlaIi8+PHBhdGggZD0iTTE1LjgxLDI3YTcuMTIsNy4xMiwwLDEsMC0zLDUuMjNsMy42NSwyLjExYTI4LjYyLDI4LjYyLDAsMCwxLDMtNS4yMlptLTcsMi45NUg4LjcyYTMuNTYsMy41NiwwLDAsMS0zLjU2LTMuNTZjMC0uMTIsMC0uMjQsMC0uMzZhMS4xLDEuMSwwLDAsMSwwLS4xOHMwLS4wOCwwLS4xMiwwLS4wNSwwLS4wOGgwYTMuNTYsMy41NiwwLDAsMSw2LjYyLS45MiwzLjQ5LDMuNDksMCwwLDEsLjM0LjkyaDBzMCwuMDUsMCwuMDhhLjUuNSwwLDAsMCwwLC4xMmMwLC4wNiwwLC4xMiwwLC4xOHMwLC4yNCwwLC4zNkEzLjU2LDMuNTYsMCwwLDEsOC44NCwyOS45M1oiLz48cGF0aCBkPSJNNzksNTguNzFhNy4xMiw3LjEyLDAsMCwwLTcuNjQuMzNsLTQuMjctMi40N2EyNy41MywyNy41MywwLDAsMS0zLDUuMjVsNC4yNSwyLjQ1QTcuMTIsNy4xMiwwLDEsMCw3OSw1OC43MVptLTMuNTYsOS43M2EzLjU3LDMuNTcsMCwwLDEtMy4xNC0xLjg5LDMuNTEsMy41MSwwLDAsMS0uNDItMS42N2MwLS4xMywwLS4yNSwwLS4zN2ExLjEsMS4xLDAsMCwxLDAtLjE4czAtLjA4LDAtLjEyLDAsMCwwLS4wN3YwaDBhMy41NSwzLjU1LDAsMCwxLDMuMzYtMi44aC4xMmEzLjU2LDMuNTYsMCwwLDEsMy40OCwyLjhoMHYwczAsMCwwLC4wN2EuNS41LDAsMCwwLDAsLjEyYzAsLjA2LDAsLjEyLDAsLjE4czAsLjI0LDAsLjM3QTMuNTYsMy41NiwwLDAsMSw3NS40MSw2OC40NFoiLz48cGF0aCBkPSJNMjcuMzgsMzMuNjZjLS41Ni0uMjQtMS4xLS41LTEuNjEtLjc3bC4wOS0uMTFoMFoiLz48cG9seWdvbiBwb2ludHM9IjM2LjAyIDQ1LjYyIDM2LjAyIDQ1LjYzIDM2LjAyIDQ1LjYyIDM2LjAyIDQ1LjYyIi8+PHBhdGggZD0iTTUxLjU2LDUxLjU1bC0uMTUsMS4xMVoiLz48cGF0aCBkPSJNMTkuNTUsNjIuMTFhMjYuODQsMjYuODQsMCwwLDEtMy4wNy01LjJMMTIuNzksNTlhNy4xMiw3LjEyLDAsMSwwLDMsNS4yM1ptLTcuNjksNC40NGEzLjU2LDMuNTYsMCwwLDEtNi43LTEuNjdjMC0uMTMsMC0uMjUsMC0uMzdhMS4xLDEuMSwwLDAsMSwwLS4xOHMwLS4wOCwwLS4xMiwwLDAsMC0uMDd2MGgwYTMuNTYsMy41NiwwLDAsMSwzLjQ4LTIuOGguMTJhMy41NSwzLjU1LDAsMCwxLDMuMzYsMi44aDB2MHMwLDAsMCwuMDdhLjUuNSwwLDAsMCwwLC4xMmMwLC4wNiwwLC4xMiwwLC4xOHMwLC4yNCwwLC4zN0EzLjUxLDMuNTEsMCwwLDEsMTEuODYsNjYuNTVaIi8+PHBvbHlnb24gcG9pbnRzPSIzOS4wNCA0Ny4zNyAzOS4wNCA0Ny4zNyAzOS4wNCA0Ny4zNyAzOS4wNCA0Ny4zNyIvPjxwb2x5Z29uIHBvaW50cz0iNDUuMDkgNDcuMzcgNDUuMDkgNDcuMzcgNDUuMDkgNDcuMzcgNDUuMDkgNDcuMzciLz48cG9seWdvbiBwb2ludHM9IjQ4LjExIDQ1LjYyIDQ4LjExIDQ1LjYzIDQ4LjEgNDUuNjIgNDguMTEgNDUuNjIiLz48cGF0aCBkPSJNNTEuMiwzNy4zYzAtLjEzLS4wNS0uMjYtLjA3LS4zOWEuMDYuMDYsMCwwLDAsMCwwbDAsLjIxWiIvPjxwYXRoIGQ9Ik01OC4zNiwzMi44OWMtLjUxLjI3LTEsLjUzLTEuNjEuNzdsMS41Mi0uODhoMFoiLz48cGF0aCBkPSJNODEuNTgsMjIuODFBNy4xMyw3LjEzLDAsMCwwLDY4LjMxLDI3TDY0LjEyLDI5LjRhMjguMzEsMjguMzEsMCwwLDEsMyw1LjI2bDQuMjMtMi40NWE3LjEyLDcuMTIsMCwwLDAsMTAuMjUtOS40Wm0tNi4xNyw3LjEyaC0uMTJhMy41NiwzLjU2LDAsMCwxLTMuNDQtMy41NmMwLS4xMiwwLS4yNCwwLS4zNmExLjEsMS4xLDAsMCwxLDAtLjE4czAtLjA4LDAtLjEyLDAtLjA1LDAtLjA4aDBhMy40OSwzLjQ5LDAsMCwxLC4zNC0uOTIsMy41NiwzLjU2LDAsMCwxLDYuNjIuOTJoMHMwLC4wNSwwLC4wOGEuNS41LDAsMCwwLDAsLjEyYzAsLjA2LDAsLjEyLDAsLjE4czAsLjI0LDAsLjM2QTMuNTYsMy41NiwwLDAsMSw3NS40MSwyOS45M1oiLz48Y2lyY2xlIHI9IjMuNTYiIGN5PSI0NS42MiIgY3g9IjgwLjU3Ii8+PGNpcmNsZSByPSIzLjU2IiBjeT0iNDUuNjIiIGN4PSIzLjU2Ii8+PHBhdGggZD0iTTU5LjYsNzUuODVhMy41NiwzLjU2LDAsMSwwLDQuODcsMS4yOUEzLjU1LDMuNTUsMCwwLDAsNTkuNiw3NS44NVoiLz48cGF0aCBkPSJNMjQuNTMsMTUuNGEzLjU2LDMuNTYsMCwxLDAtNC44Ny0xLjI5QTMuNTYsMy41NiwwLDAsMCwyNC41MywxNS40WiIvPjxwYXRoIGQ9Ik0yNC41Myw3NS44NWEzLjU2LDMuNTYsMCwxLDAsMS4yOSw0Ljg2QTMuNTYsMy41NiwwLDAsMCwyNC41Myw3NS44NVoiLz48cGF0aCBkPSJNNTkuNiwxNS40YTMuNTYsMy41NiwwLDEsMC0xLjI5LTQuODZBMy41NiwzLjU2LDAsMCwwLDU5LjYsMTUuNFoiLz48cGF0aCBkPSJNMjUuODYsMzIuNzhsMS41Mi44OGMtLjU2LS4yNC0xLjEtLjUtMS42MS0uNzdsLjA5LS4xMVoiLz48cGF0aCBkPSJNNTEuNDEsNTIuNjZsLjE1LTEuMTFabS0uMjQtMTUuNSwwLS4yMWEuMDYuMDYsMCwwLDEsMCwwYzAsLjEzLDAsLjI2LjA3LjM5Wm0uMjQsMTUuNS4xNS0xLjExWm0tLjI0LTE1LjUsMC0uMjFhLjA2LjA2LDAsMCwxLDAsMGMwLC4xMywwLC4yNi4wNy4zOVpNNDguMSw0NS42MmgwWm0tMywxLjc1Wm02LjA4LTEwLjIxLDAtLjIxYS4wNi4wNiwwLDAsMSwwLDBjMCwuMTMsMCwuMjYuMDcuMzlabS4yNCwxNS41LjE1LTEuMTFabS0uMjQtMTUuNSwwLS4yMWEuMDYuMDYsMCwwLDEsMCwwYzAsLjEzLDAsLjI2LjA3LjM5Wm0uMjQsMTUuNS4xNS0xLjExWm0tNi4zMi01LjI5Wm0wLDBabTYuMDgtMTAuMjEsMC0uMjFhLjA2LjA2LDAsMCwxLDAsMGMwLC4xMywwLC4yNi4wNy4zOVpNNDUuMDksNDcuMzdabTYuMzIsNS4yOS4xNS0xLjExWm0tLjI0LTE1LjUsMC0uMjFhLjA2LjA2LDAsMCwxLDAsMGMwLC4xMywwLC4yNi4wNy4zOVptLjI0LDE1LjUuMTUtMS4xMVptLS4yNC0xNS41LDAtLjIxYS4wNi4wNiwwLDAsMSwwLDBjMCwuMTMsMCwuMjYuMDcuMzlabS4yNCwxNS41LjE1LTEuMTFabS0uMjQtMTUuNSwwLS4yMWEuMDYuMDYsMCwwLDEsMCwwYzAsLjEzLDAsLjI2LjA3LjM5Wm0uMjQsMTUuNS4xNS0xLjExWm0tLjI0LTE1LjUsMC0uMjFhLjA2LjA2LDAsMCwxLDAsMGMwLC4xMywwLC4yNi4wNy4zOVpNMzYsNDUuNjJoMFptMTUuMzksNywuMTUtMS4xMVptLS4yNC0xNS41LDAtLjIxYS4wNi4wNiwwLDAsMSwwLDBjMCwuMTMsMCwuMjYuMDcuMzlaTTI1Ljg2LDMyLjc4bC4wOS0uMTItLjA5LjEyLS4wOS4xMWMuNTEuMjcsMS4wNS41MywxLjYxLjc3Wk0yMS40NSw0NGEuNDEuNDEsMCwwLDAsMCwuMTEsMi4yOCwyLjI4LDAsMCwxLDAtLjI2VjQ0Wm0tLjA1LDIuNDhjMCwuMjgsMCwuNTcuMDYuODZabTAtMS43NHYwWm0wLC4yN3YuMDljMC0uMSwwLS4xOSwwLS4yOEExLjI4LDEuMjgsMCwwLDEsMjEuMzksNDVaTTI3LDU5Ljc0Wm03LjI2LTMzLjI1LS4yMS4wOS4zMi0uMTNabTIuMTEsMzloMGwuMTMsMFptLjQ0LjEyaDBsLS4xOSwwLC4xNCwwLC4wNywwaDBaTTYyLjczLDQ1di0uMTlhMi43MiwyLjcyLDAsMCwwLDAsLjI4djBBLjQzLjQzLDAsMCwwLDYyLjczLDQ1Wm0wLS4yN3MwLDAsMCwwYS4zNC4zNCwwLDAsMSwwLC4xWm0wLS40N2EyLjQ1LDIuNDUsMCwwLDAsMC0uMjd2LS4xOGwtLjA2LS42czAtLjExLDAtLjE2LDAtLjA3LDAtLjExaDBjMCwuMzEtLjA4LjYxLS4xMy45LS4xLjU5LS4yMywxLjE3LS4zOCwxLjc0aC42MWMwLS4yOCwwLS41NywwLS44N2gwQzYyLjcyLDQ0LjYsNjIuNzEsNDQuNDUsNjIuNyw0NC4zWm0wLDMuMDdjMC0uMjksMC0uNTgsMC0uODZDNjIuNzEsNDYuNzksNjIuNjksNDcuMDgsNjIuNjcsNDcuMzdaTTU4LjM2LDMyLjg5bC0uMDktLjExLS4wOS0uMTIuMDkuMTItMS41Mi44OEM1Ny4zMSwzMy40Miw1Ny44NSwzMy4xNiw1OC4zNiwzMi44OVpNNDcuOCwyNS43NWwtLjI3LS4wNy41NS4xNlptMy4zNywxMS40MSwwLS4yMWEuMDYuMDYsMCwwLDEsMCwwYzAsLjEzLDAsLjI2LjA3LjM5Wk00Ni44LDY1Ljc1bC0uMTEsMCwuMTEsMCwuMDYsMFptLjczLS4xOC4yNy0uMDcuMjgtLjA5Wm0yLjI3LS43Ny4wNywwLC4yLS4wOVptNi42NS00LjMzLDAsMCwuMDktLjA5LDAsMFptLjcyLS43M1ptLTUuNzYtNy4wOC4xNS0xLjExWm0tMy4zMS03aDBabS0zLDEuNzVabS02LjA1LDBabS0zLTEuNzVoMFpNMjEuNTUsNDNzMCwuMDcsMCwuMTFsMC0uMTFabTI5LjYyLTUuODIsMC0uMjFhLjA2LjA2LDAsMCwxLDAsMGMwLC4xMywwLC4yNi4wNy4zOVptLjI0LDE1LjUuMTUtMS4xMVptLS4yNC0xNS41LDAtLjIxYS4wNi4wNiwwLDAsMSwwLDBjMCwuMTMsMCwuMjYuMDcuMzlabS4yNCwxNS41LjE1LTEuMTFabS0uMjQtMTUuNSwwLS4yMWEuMDYuMDYsMCwwLDEsMCwwYzAsLjEzLDAsLjI2LjA3LjM5Wm0uMjQsMTUuNS4xNS0xLjExWm0tLjI0LTE1LjUsMC0uMjFhLjA2LjA2LDAsMCwxLDAsMGMwLC4xMywwLC4yNi4wNy4zOVptLjI0LDE1LjUuMTUtMS4xMVptLTYuMzItNS4yOVptNi4wOC0xMC4yMSwwLS4yMWEuMDYuMDYsMCwwLDEsMCwwYzAsLjEzLDAsLjI2LjA3LjM5Wk00NS4wOSw0Ny4zN1ptNi4zMiw1LjI5LjE1LTEuMTFabS02LjMyLTUuMjlabTYuMDgtMTAuMjEsMC0uMjFhLjA2LjA2LDAsMCwxLDAsMGMwLC4xMywwLC4yNi4wNy4zOVptLjI0LDE1LjUuMTUtMS4xMVptLS4yNC0xNS41LDAtLjIxYS4wNi4wNiwwLDAsMSwwLDBjMCwuMTMsMCwuMjYuMDcuMzlabS4yNCwxNS41LjE1LTEuMTFabS0uMjQtMTUuNSwwLS4yMWEuMDYuMDYsMCwwLDEsMCwwYzAsLjEzLDAsLjI2LjA3LjM5Wm0uMjQsMTUuNS4xNS0xLjExWm0wLDAsLjE1LTEuMTFaIi8+PHBhdGggZD0iTTQ1LjA5LDQ3LjM3Wk0zNiw0NS42MmgwWk0yNS44NiwzMi43OGwuMDktLjEyLS4wOS4xMi0uMDkuMTFjLjUxLjI3LDEuMDUuNTMsMS42MS43N1pNMjEuNDUsNDRhLjQxLjQxLDAsMCwwLDAsLjExLDIuMjgsMi4yOCwwLDAsMSwwLS4yNkEuNzYuNzYsMCwwLDAsMjEuNDUsNDRabS0uMDUsMi40OGMwLC4yOCwwLC41Ny4wNi44NlptMC0xLjc0djBabTAsLjI3di4wOWMwLS4xLDAtLjE5LDAtLjI4QTEuMjgsMS4yOCwwLDAsMSwyMS4zOSw0NVpNMzQuMjEsMjYuNDlsLS4yMS4wOS4zMi0uMTNabTIuNTMsMzkuMTJoMFpNNjIuNzMsNDV2LS4xOWEyLjcyLDIuNzIsMCwwLDAsMCwuMjh2MEEuNDMuNDMsMCwwLDAsNjIuNzMsNDVabTAtLjI3czAsMCwwLDBhLjM0LjM0LDAsMCwxLDAsLjFabTAtLjQ3YTIuNDUsMi40NSwwLDAsMCwwLS4yN2MwLS4wNSwwLS4xLDAtLjE1djBsLS4wNi0uNnMwLS4xMSwwLS4xNmwwLS4xMWMwLC4zMS0uMDguNjEtLjEzLjktLjEuNTktLjIzLDEuMTctLjM4LDEuNzRoLjYxYzAtLjI4LDAtLjU3LDAtLjg3aDBDNjIuNzIsNDQuNiw2Mi43MSw0NC40NSw2Mi43LDQ0LjNabTAsMy4wN2MwLS4yOSwwLS41OCwwLS44NkM2Mi43MSw0Ni43OSw2Mi42OSw0Ny4wOCw2Mi42Nyw0Ny4zN1pNNTguMzYsMzIuODlsLS4wOS0uMTEtLjA5LS4xMi4wOS4xMi0xLjUyLjg4QzU3LjMxLDMzLjQyLDU3Ljg1LDMzLjE2LDU4LjM2LDMyLjg5Wk00Ny44LDI1Ljc1bC0uMjctLjA3LjU1LjE2Wm0zLjM3LDExLjQxLDAtLjIxYS4wNi4wNiwwLDAsMSwwLDBjMCwuMTMsMCwuMjYuMDcuMzlaTTQ2LjgsNjUuNzVsLS4xMSwwLC4xMSwwLC4wNiwwWm0uNzMtLjE4LjI3LS4wNy4yOC0uMDlabTIuMjctLjc3LjA3LDAsLjItLjA5Wm0xLjYxLTEyLjE0LjE1LTEuMTFabS0zLjMxLTdoMFptLTMsMS43NVptLTYuMDUsMFptLTMtMS43NWgwWm05LjA3LDEuNzVabTAsMFoiLz48cGF0aCBkPSJNMjEuNTYsNDNsMCwuMTFzMC0uMDcsMC0uMTFaIi8+PHBhdGggZD0iTTIxLjQsNDQuODVjMCwuMDksMCwuMTgsMCwuMjhWNDVBMS4yOCwxLjI4LDAsMCwwLDIxLjQsNDQuODVaIi8+PHBhdGggZD0iTTIxLjQsNDQuNzV2MFoiLz48cGF0aCBkPSJNMjEuNDYsNDcuMzdjMC0uMjksMC0uNTgtLjA2LS44NloiLz48cGF0aCBkPSJNMjEuNDYsNDMuODV2MGEyLjI4LDIuMjgsMCwwLDAsMCwuMjYuNDEuNDEsMCwwLDEsMC0uMTFaIi8+PHBhdGggZD0iTTM2LjQ2LDY1LjUzbC0uMTMsMGgwWiIvPjxwYXRoIGQ9Ik0zNi43Myw2NS42MWwwLDAtLjE0LDBaIi8+PHBhdGggZD0iTTQ2Ljg2LDY1Ljc0bC0uMDYsMC0uMTEsMCwuMTEsMFoiLz48cGF0aCBkPSJNNDguMDgsNjUuNDFsLS4yOC4wOS0uMjcuMDdaIi8+PHBhdGggZD0iTTUwLjA3LDY0LjY5bC0uMi4wOS0uMDcsMFoiLz48cGF0aCBkPSJNNTYuNTQsNjAuMzlsMCwwLS4wOS4wOSwwLDBaIi8+PHBhdGggZD0iTTYyLjcyLDQ2LjUxYzAsLjI4LDAsLjU3LDAsLjg2QzYyLjY5LDQ3LjA4LDYyLjcxLDQ2Ljc5LDYyLjcyLDQ2LjUxWiIvPjxwYXRoIGQ9Ik02Mi43Miw0NC43NGgwYzAsLjMsMCwuNTksMCwuODdoLS42MWMuMTUtLjU3LjI4LTEuMTUuMzgtMS43NC4wNS0uMjkuMS0uNTkuMTMtLjloMHMwLC4wNywwLC4xMSwwLC4xMSwwLC4xNmwuMDYuNlY0NGEyLjQ1LDIuNDUsMCwwLDEsMCwuMjdDNjIuNzEsNDQuNDUsNjIuNzIsNDQuNiw2Mi43Miw0NC43NFoiLz48cGF0aCBkPSJNNjIuNzMsNDQuODVhLjM0LjM0LDAsMCwwLDAtLjFzMCwwLDAsMFoiLz48cGF0aCBkPSJNNjIuNzQsNDUuMDl2MGEyLjcyLDIuNzIsMCwwLDEsMC0uMjhWNDVBLjQzLjQzLDAsMCwxLDYyLjc0LDQ1LjA5WiIvPjxwYXRoIGQ9Ik01Ni41NCw2MC4zOWwwLDAtLjA5LjA5LDAsMFoiLz48cG9seWdvbiBwb2ludHM9IjI2Ljk2IDU5Ljc0IDI2Ljk1IDU5Ljc0IDI2Ljk1IDU5Ljc0IDI2Ljk2IDU5Ljc0Ii8+PHBhdGggZD0iTTU2LjU0LDYwLjM5bDAsMC0uMDYsMFoiLz48cG9seWdvbiBwb2ludHM9IjU3LjE4IDU5Ljc0IDU3LjE3IDU5Ljc0IDU3LjE3IDU5Ljc0IDU3LjE4IDU5Ljc0Ii8+PHBhdGggZD0iTTI3LjM4LDMzLjY2Yy0uNTYtLjI0LTEuMS0uNS0xLjYxLS43N2wuMDktLjExaDBaIi8+PHBhdGggZD0iTTU4LjM2LDMyLjg5Yy0uNTEuMjctMSwuNTMtMS42MS43N2wxLjUyLS44OGgwWiIvPjxwYXRoIGQ9Ik0yNy4zOCwzMy42NmMtLjU2LS4yNC0xLjEtLjUtMS42MS0uNzdsLjA5LS4xMWgwWiIvPjxwYXRoIGQ9Ik01OC4zNiwzMi44OWMtLjUxLjI3LTEsLjUzLTEuNjEuNzdsMS41Mi0uODhoMFoiLz48cGF0aCBkPSJNMjEuNCw0NC43NXYwWiIvPjxwb2x5Z29uIHBvaW50cz0iMzYuMDIgNDUuNjIgMzYuMDIgNDUuNjMgMzYuMDIgNDUuNjIgMzYuMDIgNDUuNjIiLz48cG9seWdvbiBwb2ludHM9IjQ4LjExIDQ1LjYyIDQ4LjExIDQ1LjYzIDQ4LjEgNDUuNjIgNDguMTEgNDUuNjIiLz48cGF0aCBkPSJNNjIuNzIsNDQuNzRoMGMwLC4zLDAsLjU5LDAsLjg3aC0uNjFjLjE1LS41Ny4yOC0xLjE1LjM4LTEuNzRoLjIzbDAsLjQyQzYyLjcxLDQ0LjQ1LDYyLjcyLDQ0LjYsNjIuNzIsNDQuNzRaIi8+PHBhdGggZD0iTTYyLjczLDQ0Ljg1YS4zNC4zNCwwLDAsMCwwLS4xczAsMCwwLDBaIi8+PHBvbHlnb24gcG9pbnRzPSIzNi4wMiA0NS42MiAzNi4wMiA0NS42MyAzNi4wMiA0NS42MiAzNi4wMiA0NS42MiIvPjxwb2x5Z29uIHBvaW50cz0iNDguMTEgNDUuNjIgNDguMTEgNDUuNjMgNDguMSA0NS42MiA0OC4xMSA0NS42MiIvPjxwYXRoIGQ9Ik0zNi40Niw2NS41M2wtLjEzLDBoMFoiLz48cGF0aCBkPSJNMzYuNzcsNjUuNjJoMGwtLjA3LDAtLjE0LDAsLjE5LDBoMFoiLz48cGF0aCBkPSJNMzYuNzMsNjUuNjFsMCwwLS4xNCwwWiIvPjxwYXRoIGQ9Ik0zNi43Niw2NS42MWgwWiIvPjxwYXRoIGQ9Ik00OC4wOCwyNS44NGwtLjU1LS4xNi4yNy4wN1oiLz48cGF0aCBkPSJNNTEuMiwzNy4zYzAtLjEzLS4wNS0uMjYtLjA3LS4zOWEuMDYuMDYsMCwwLDAsMCwwbDAsLjIxWiIvPjxwYXRoIGQ9Ik01MS41Niw1MS41NWwtLjE1LDEuMTFaIi8+PHBhdGggZD0iTTQ4LjA4LDY1LjQxbC0uMjguMDktLjI3LjA3WiIvPjxwYXRoIGQ9Ik00Ni44LDY1Ljc1aDBsLS4xMSwwWiIvPjxwYXRoIGQ9Ik02NS42LDM1LjUzYTI1Ljg0LDI1Ljg0LDAsMCwwLTMtNS4yM0EyNS41NiwyNS41NiwwLDAsMCw0NS4wOSwyMC4yYTI3LDI3LDAsMCwwLTYuMDUsMEEyNS41NiwyNS41NiwwLDAsMCwyMS41NiwzMC4zYTI1Ljg0LDI1Ljg0LDAsMCwwLTMsNS4yMywyNS43NywyNS43NywwLDAsMCwwLDIwLjE5LDI1Ljg0LDI1Ljg0LDAsMCwwLDMsNS4yM0EyNS41NiwyNS41NiwwLDAsMCwzOSw3MS4wNWEyNywyNywwLDAsMCw2LjA1LDBBMjUuNTYsMjUuNTYsMCwwLDAsNjIuNTcsNjFhMjUuODQsMjUuODQsMCwwLDAsMy01LjIzLDI1Ljc3LDI1Ljc3LDAsMCwwLDAtMjAuMTlaTTM3LjcyLDI1LjQxcS42Ni0uMTUsMS4zMi0uMjRjLjQyLS4wNy44NS0uMTIsMS4yOC0uMTV2Ny44M2MtLjQzLDAtLjg1LDAtMS4yOC0uMDhhMzYsMzYsMCwwLDEtNC44MS0uNjQsMjUuODMsMjUuODMsMCwwLDEsMS4yMi0zLjA3QTE2LjgzLDE2LjgzLDAsMCwxLDM3LjcyLDI1LjQxWm0tMy41MSwxLjA4LjExLDAtLjMyLjEzWm0tLjkxLDlhMzkuOTEsMzkuOTEsMCwwLDAsNS43NC43OGMuNDMsMCwuODUuMDYsMS4yOC4wN3Y3LjU1SDMyLjI1YzAtLjE0LDAtLjI4LDAtLjQyQTQ1LjA5LDQ1LjA5LDAsMCwxLDMzLDM2LjkxQzMzLjA5LDM2LjQyLDMzLjE5LDM2LDMzLjMsMzUuNDhaTTM2LDQ1LjYyaDBaTTMyLjQxLDI3LjM0YzAsLjA3LS4wNy4xNS0uMTEuMjNhMzEuMzIsMzEuMzIsMCwwLDAtMS40NSwzLjY4LDIzLjA5LDIzLjA5LDAsMCwxLTIuNi0xQTIwLjQsMjAuNCwwLDAsMSwzMi40MSwyNy4zNFpNMjEuNDUsNDR2LS4xOGwuMDYtLjZzMC0uMTEsMC0uMTYsMC0uMDcsMC0uMTFoMGEyMC4xNiwyMC4xNiwwLDAsMSwxLjI3LTUsMjEsMjEsMCwwLDEsMi45NC01LjEybC4wOS0uMTEuMDktLjEyLS4wOS4xMiwxLjUyLjg4aDBhMjUuMjUsMjUuMjUsMCwwLDAsMi41NC45NGMwLC4xNi0uMDcuMzEtLjExLjQ3YTQ4LDQ4LDAsMCwwLS45Miw2LjQ0Yy0uMDcuNzgtLjExLDEuNTctLjEzLDIuMzdIMjEuNDZhMi4yOCwyLjI4LDAsMCwwLDAsLjI2QS40MS40MSwwLDAsMSwyMS40NSw0NFptLS4wNiwxLjFWNDVhMS4yOCwxLjI4LDAsMCwwLDAtLjE5djBDMjEuNCw0NC45NCwyMS4zOSw0NSwyMS4zOSw0NS4xM1pNMjcsNTkuNzRabS40My0yLjE0YTE3LjExLDE3LjExLDAsMCwwLTEuNjEuNzYsMjEsMjEsMCwwLDEtMi45NC01LjEyLDIwLjUzLDIwLjUzLDAsMCwxLTEuMzctNS44N2MwLS4yOSwwLS41OC0uMDYtLjg2bC4wNi44Nmg3LjMxYzAsLjguMDYsMS41OS4xMywyLjM3YTQ4LDQ4LDAsMCwwLC45Miw2LjQ0YzAsLjE2LjA3LjMxLjExLjQ3bC0uNC4xM2MtLjc1LjI1LTEuNDcuNTItMi4xNS44MVptNC42OSw2LjEzLS4zMi0uMTgtLjMxLS4xOC0uMzEtLjE5LS4zLS4yYTMuMjgsMy4yOCwwLDAsMS0uMzEtLjJoMGwtLjI4LS4xOS0uMzctLjI2LS4zMy0uMjUtLjI5LS4yMi0uNjQtLjU0LS4xNy0uMTRMMjguMjUsNjFsLjI1LS4xMS4xOS0uMDljLjU1LS4yNCwxLjEyLS40NiwxLjcyLS42N2wuMzgtLjEyLjA2LDBhMzEuMzIsMzEuMzIsMCwwLDAsMS40NSwzLjY4bC4xMS4yNFpNMzMsNTQuMzRhNDUuMDksNDUuMDksMCwwLDEtLjczLTYuNTVjMC0uMTQsMC0uMjgsMC0uNDJoOC4wN3Y3LjU1Yy0uNDMsMC0uODUsMC0xLjI4LjA3YTM5LjkxLDM5LjkxLDAsMCwwLTUuNzQuNzhDMzMuMTksNTUuMywzMy4wOSw1NC44MywzMyw1NC4zNFpNMzYuMzMsNjUuNWgwbC4xNCwwWm0uNDIuMTEtLjA3LDAtLjE0LDAsLjE5LDBoMFptNCwuNjUtLjQxLDBoMGwtLjQzLDAtLjQyLDAtLjE3LDAtLjI1LDBxLS4zNywwLS43NS0uMTJsLS4yNCwwLS4zMy0uMDdhMTYuODMsMTYuODMsMCwwLDEtMi4yNy0zLjY1LDI3Ljg2LDI3Ljg2LDAsMCwxLTEuMDktMi42NmMwLS4xNC0uMDktLjI3LS4xMy0uNDEuNDItLjA4Ljg2LS4xNywxLjMxLS4yNGwuNDQtLjA3LjYtLjA4Ljc4LS4xLjM0LDAsLjI5LDAsLjM0LDAsLjcxLS4wNS4yOSwwLDEtLjA2djcuODNsLjg3LDBabTE1LjE1LTM2YTIzLjA5LDIzLjA5LDAsMCwxLTIuNiwxLDMxLjMyLDMxLjMyLDAsMCwwLTEuNDUtMy42OGwtLjExLS4yM0EyMC42OCwyMC42OCwwLDAsMSw1NS44OCwzMC4yNFpNNDcuOCwyNS43NWwuMjguMDktLjU1LS4xNlptLTQtLjczYy40MywwLC44NS4wOCwxLjI4LjE1cy44OC4xNCwxLjMyLjI0YTE2LjgzLDE2LjgzLDAsMCwxLDIuMjcsMy42NWMuMTcuMzYuMzMuNzMuNDksMS4xMWwuMTUuMzcuMTYuMzljLjA1LjEzLjEuMjYuMTQuNHMuMTkuNTMuMjguOGEzNiwzNiwwLDAsMS00LjgxLjY0Yy0uNDMsMC0uODUuMDYtMS4yOC4wOFptMCwxMS4zMWMuNDMsMCwuODUsMCwxLjI4LS4wN2EzOS45MSwzOS45MSwwLDAsMCw1Ljc0LS43OGgwYzAsLjEyLjA2LjIzLjA4LjM1bC4xNS43MWMwLC4xMiwwLC4yNC4wNy4zNmEuMDYuMDYsMCwwLDAsMCwwbDAsLjIxLDAsLjE0YzAsLjE1LDAsLjMxLjA4LjQ3cy4xLjU5LjE0Ljg5YTIuNTEsMi41MSwwLDAsMCwwLC4yN2MwLC4yNS4wNy41MS4xLjc3czAsLjI2LDAsLjRjMCwuMy4wNy42LjEuOSwwLC4xMSwwLC4yMSwwLC4zMnMwLC4wOSwwLC4xNGEyLjExLDIuMTEsMCwwLDAsMCwuMjVsLjA2Ljl2LjEyYzAsLjEsMCwuMiwwLC4zaDBjMCwuMTQsMCwuMjksMCwuNDNzMCwuMjgsMCwuNDJINDMuODFabTQuMyw5LjI5aDBaTTQ2LjgsNjUuNzZsLS4xMSwwLC4xMSwwaC4wNlptMS0uMjYtLjI3LjA3LjU1LS4xNlptMS45NC01Ljg5Yy0uMDUuMTItLjA5LjI0LS4xMy4zNWEyLjc3LDIuNzcsMCwwLDEtLjEuMjZjMCwuMTEtLjA4LjIzLS4xMy4zNHMtLjExLjI4LS4xNy40MmwtLjE1LjM2LDAsLjA4Yy0uMDUuMTItLjEuMjMtLjE2LjM1cy0uMTIuMjgtLjE5LjQyYTE2LjgzLDE2LjgzLDAsMCwxLTIuMjcsMy42NWwtLjMzLjA3LS4yNCwwcS0uMzcuMDgtLjc1LjEybC0uMjUsMC0uMTcsMC0uNDIsMC0uNDMsMGgwbC0uNDIsMC0uNDUsMCwuODcsMFY1OC40bDEsLjA2LjI5LDAsLjcxLjA1LjM0LDAsLjI5LDAsLjM0LDAsLjc4LjEuNi4wOC40NC4wN2MuNDUuMDcuODguMTYsMS4zMS4yNCwwLC4xNC0uMDkuMjctLjEzLjQxWm0uMTMsNS4xNy0uMDcsMCwuMjctLjExWk01MS42Miw1MWwtLjA2LjU4LS4xNSwxLjExYzAsLjE0LDAsLjI5LS4wNy40M3MwLC4yMi0uMDUuMzNsLS4wOS41YzAsLjE0LS4wNS4yOC0uMDcuNDJzLS4wNS4yNC0uMDcuMzYtLjA1LjI0LS4wNy4zNi0uMDUuMjQtLjA4LjM1LDAsLjIxLS4wNy4zMmEuMDguMDgsMCwwLDEsMCwwQTM5LjkxLDM5LjkxLDAsMCwwLDQ1LjA5LDU1Yy0uNDMsMC0uODUtLjA2LTEuMjgtLjA3VjQ3LjM3aDguMDdjMCwuMTQsMCwuMjgsMCwuNDJzMCwuMjgsMCwuNDJjMCwuMywwLC42LS4wNS45bC0uMDYuNzljMCwuMTYsMCwuMzIsMCwuNDhabTQuMDgsMTAuMi0uMTcuMTQtLjY0LjU0LS4yOS4yMi0uMzMuMjUtLjM3LjI2LS4yOC4xOWgwbC0uMy4yLS4zLjItLjMxLjE5LS4zMS4xOC0uNjYuMzdhMi41NiwyLjU2LDAsMCwxLC4xMS0uMjRBMzEuMzIsMzEuMzIsMCwwLDAsNTMuMjgsNjBsMCwwLC4zOS4xMmMuNi4yMSwxLjE3LjQzLDEuNzIuNjdsLjE5LjA5LjI1LjExWm0uODEtLjc1LS4wOS4wOSwwLDAsLjA5LS4wOFptLjY2LS42OFptNS41LTEyLjM3YTIwLjcyLDIwLjcyLDAsMCwxLTQuMzEsMTFjLS41MS0uMjctMS0uNTMtMS42MS0uNzdzLTEuNC0uNTYtMi4xNS0uODFsLS40LS4xM2MwLS4xNi4wNy0uMzEuMTEtLjQ3YTQ4LDQ4LDAsMCwwLC45Mi02LjQ0Yy4wNy0uNzguMTEtMS41Ny4xMy0yLjM3aDcuMzFjMC0uMjksMC0uNTgsMC0uODZDNjIuNzEsNDYuNzksNjIuNjksNDcuMDgsNjIuNjcsNDcuMzdabS4wNy0yLjI0YTIuNzIsMi43MiwwLDAsMSwwLS4yOC4zNC4zNCwwLDAsMCwwLS4xYzAsLjMsMCwuNTksMCwuODdoLS42MWMuMTUtLjU3LjI4LTEuMTUuMzgtMS43NEg1NS4zNmMwLS44LS4wNi0xLjU5LS4xMy0yLjM3YTQ4LDQ4LDAsMCwwLS45Mi02LjQ0YzAtLjE2LS4wNy0uMzEtLjExLS40Ny44OS0uMjgsMS43NC0uNiwyLjU1LS45NGwxLjUyLS44OC0uMDktLjEyLjA5LjEyLjA5LjExQTIxLDIxLDAsMCwxLDYxLjMsMzhoMGEyMC4xNiwyMC4xNiwwLDAsMSwxLjI3LDVoMHMwLC4wNywwLC4xMSwwLC4xMSwwLC4xNmwuMDYuNlY0NGEyLjQ1LDIuNDUsMCwwLDEsMCwuMjdjMCwuMTUsMCwuMywwLC40NGgwczAsMCwwLDBWNDVhLjQzLjQzLDAsMCwxLDAsLjA1WiIvPjwvZz48L2c+PC9zdmc+;" vertex="1" parent="1">
          <mxGeometry x="50.93" y="50" width="84" height="91" as="geometry" />
        </mxCell>
        <mxCell id="ycBOW7GdnXwQtTXTmGB2-2259" value="" style="shape=image;verticalLabelPosition=bottom;labelBackgroundColor=default;verticalAlign=top;aspect=fixed;imageAspect=0;image=data:image/svg+xml,PHN2ZyB4bWxucz0iaHR0cDovL3d3dy53My5vcmcvMjAwMC9zdmciIHZpZXdCb3g9IjAgMCA0MC43NyA4MS41OSI+PHRpdGxlPkNlbGxwaG9uZXM8L3RpdGxlPjxnIGRhdGEtbmFtZT0iTGF5ZXIgMiIgaWQ9IjRkNjE2ZjFiLTJiYWMtNDk3MC05MGRlLTMzZmFlM2JkZmMxMSI+PGcgZGF0YS1uYW1lPSJMYXllciAxIiBpZD0iMjVkNWFiYzMtYjJhMC00YzFjLTg2NmEtYWY1ZDI1YTYyYzMyIj48cGF0aCBzdHlsZT0iZmlsbC1ydWxlOmV2ZW5vZGQiIGQ9Ik0yMi4wOSw3NC4zN2EyLjUsMi41LDAsMSwxLTMuNTQsMCwyLjQ5LDIuNDksMCwwLDEsMy41NCwwWiIvPjxwYXRoIHN0eWxlPSJmaWxsLXJ1bGU6ZXZlbm9kZCIgZD0iTTIyLjA5LDc0LjM3YTIuNSwyLjUsMCwxLDEtMy41NCwwLDIuNDksMi40OSwwLDAsMSwzLjU0LDBaIi8+PHBhdGggc3R5bGU9ImZpbGwtcnVsZTpldmVub2RkIiBkPSJNNDAuNDUsMTYuNzdoLS4yMVY2LjA1YTYuMDcsNi4wNywwLDAsMC02LjA1LTZINi40NkE2LjA3LDYuMDcsMCwwLDAsLjQsNi4wNVY5LjZILjMyQS4zMy4zMywwLDAsMCwwLDkuOTJ2Mi4yYS4zMy4zMywwLDAsMCwuMzIuMzJILjR2NC4zM0guMzJhLjMzLjMzLDAsMCwwLS4zMi4zMnY0Ljc4YS4zMi4zMiwwLDAsMCwuMzIuMzJILjRWMjQuMUguMzJhLjMzLjMzLDAsMCwwLS4zMi4zMnY0Ljc5YS4zMi4zMiwwLDAsMCwuMzIuMzFILjR2NDZhNi4wNyw2LjA3LDAsMCwwLDYuMDYsNkgzNC4xOWE2LjA2LDYuMDYsMCwwLDAsNi4wNS02VjIyLjE5aC4yMWEuMzIuMzIsMCwwLDAsLjMyLS4zMlYxNy4wOUEuMzIuMzIsMCwwLDAsNDAuNDUsMTYuNzdaTTIwLjMyLDJhLjQuNCwwLDEsMS0uNC40QS40LjQsMCwwLDEsMjAuMzIsMlpNMTcuNTEsNC43aDUuNjJhLjMuMywwLDAsMSwuMy4zLjMxLjMxLDAsMCwxLS4zLjNIMTcuNTFhLjMxLjMxLDAsMCwxLS4zLS4zQS4zLjMsMCwwLDEsMTcuNTEsNC43Wk0xNC40LDQuNDJhLjU4LjU4LDAsMSwxLS41Ny41OEEuNTguNTgsMCwwLDEsMTQuNCw0LjQyWm04LjE1LDc0YTMuMTUsMy4xNSwwLDAsMS01LjM4LTIuMjMsMy4xOSwzLjE5LDAsMCwxLC45Mi0yLjI0LDMuMTYsMy4xNiwwLDAsMSw0LjQ2LDAsMy4xOSwzLjE5LDAsMCwxLC45MywyLjI0QTMuMTUsMy4xNSwwLDAsMSwyMi41NSw3OC4zN1pNMzguNDksNzEuNkgyLjE1VjkuNzZIMzguNDlaIi8+PHJlY3QgdHJhbnNmb3JtPSJ0cmFuc2xhdGUoNjEgMjAuMzYpIHJvdGF0ZSg5MCkiIGhlaWdodD0iMzIuMzMiIHdpZHRoPSI1Ny44MyIgeT0iMjQuNTEiIHg9Ii04LjYiLz48L2c+PC9nPjwvc3ZnPg==;" vertex="1" parent="1">
          <mxGeometry x="150" y="110" width="25" height="50" as="geometry" />
        </mxCell>
        <mxCell id="ycBOW7GdnXwQtTXTmGB2-2260" value="" style="shape=image;verticalLabelPosition=bottom;labelBackgroundColor=default;verticalAlign=top;aspect=fixed;imageAspect=0;image=data:image/svg+xml,PHN2ZyB4bWxucz0iaHR0cDovL3d3dy53My5vcmcvMjAwMC9zdmciIHZpZXdCb3g9IjAgMCA3NS4wNiA2Ny41MSI+PHRpdGxlPkZyb250RW5kPC90aXRsZT48ZyBkYXRhLW5hbWU9IkxheWVyIDIiIGlkPSIxMzk3MGQ4Ni0zMzUwLTQyZGMtYTg4Mi0xNTQzYWFhNDNkNjIiPjxnIGRhdGEtbmFtZT0iTGF5ZXIgMSIgaWQ9IjQ2Mzc1YTg5LTljMmMtNDg1Mi05NDZiLTI5NDZmYzg2MDMyZCI+PHJlY3Qgcnk9IjIuMDkiIHJ4PSIyLjA5IiBoZWlnaHQ9IjQuMTkiIHdpZHRoPSIzNi43IiB5PSI2My4zMiIgeD0iMTkuMTgiLz48cGF0aCBzdHlsZT0iZmlsbDojNDA0MDQxIiBkPSJNNzAuOTMsMEg0LjEzQTQuMTMsNC4xMywwLDAsMCwwLDQuMTN2NDNhNC4xMyw0LjEzLDAsMCwwLDQuMTMsNC4xM2g2Ni44YTQuMTMsNC4xMywwLDAsMCw0LjEzLTQuMTN2LTQzQTQuMTMsNC4xMywwLDAsMCw3MC45MywwWm0xLjQ5LDQ2LjQ4YTIuNjUsMi42NSwwLDAsMS0yLjY1LDIuNjVINS4wOWEyLjY1LDIuNjUsMCwwLDEtMi40NS0yLjY0VjQuNzdBMi42NSwyLjY1LDAsMCwxLDUuMjksMi4xMkg2OS43N2EyLjY1LDIuNjUsMCwwLDEsMi42NSwyLjY1WiIvPjxwYXRoIGQ9Ik01LjI5LDQ4LjEzSDUuMTZhMS42NSwxLjY1LDAsMCwxLTEuNTItMS42NFY0Ljc3QTEuNjUsMS42NSwwLDAsMSw1LjI5LDMuMTJINjkuNzdhMS42NSwxLjY1LDAsMCwxLDEuNjUsMS42NVY0Ni40OGExLjY1LDEuNjUsMCwwLDEtMS42NSwxLjY1WiIvPjxwb2x5Z29uIHN0eWxlPSJmaWxsOiM0MDQwNDEiIHBvaW50cz0iNDguMTEgNjMuMzIgMjYuOTUgNjMuMzIgMjkuMDkgNTUuMyAzMC4xNyA1MS4yNSA0NC44OSA1MS4yNSA0NS45NyA1NS4zIDQ1Ljk3IDU1LjMgNDguMTEgNjMuMzIiLz48L2c+PC9nPjwvc3ZnPg==;" vertex="1" parent="1">
          <mxGeometry x="134.93" y="250" width="55.15" height="50" as="geometry" />
        </mxCell>
        <mxCell id="ycBOW7GdnXwQtTXTmGB2-2261" value="" style="shape=image;verticalLabelPosition=bottom;labelBackgroundColor=default;verticalAlign=top;aspect=fixed;imageAspect=0;image=data:image/svg+xml,PHN2ZyB4bWxucz0iaHR0cDovL3d3dy53My5vcmcvMjAwMC9zdmciIHZpZXdCb3g9IjAgMCA2OC4yOCA1Ny45OSI+PHRpdGxlPklGVFQ8L3RpdGxlPjxnIGRhdGEtbmFtZT0iTGF5ZXIgMiIgaWQ9IjQyM2YxMmI1LThjM2ItNDIyMC1iZTAxLTJkMmE5ZWIwNzg0YiI+PGcgZGF0YS1uYW1lPSJMYXllciAxIiBpZD0iNDUzNWE0YjEtM2JkNy00M2RlLWEyZDQtODdhMzdiMmEwOTY0Ij48cmVjdCBoZWlnaHQ9IjU3Ljk5IiB3aWR0aD0iMTkuMTIiLz48cG9seWdvbiBwb2ludHM9IjQ0LjYxIDE4LjcxIDQ0LjYxIDI0IDYwLjcyIDI0IDYwLjcyIDQyLjEzIDQ0LjYxIDQyLjEzIDQ0LjYxIDU3Ljk5IDI2LjI1IDU3Ljk5IDI2LjI1IDAgNjguMjggMCA2OC4yOCAxOC43MSA0NC42MSAxOC43MSIvPjwvZz48L2c+PC9zdmc+;" vertex="1" parent="1">
          <mxGeometry x="260" y="110" width="58.62" height="50" as="geometry" />
        </mxCell>
        <mxCell id="ycBOW7GdnXwQtTXTmGB2-2262" value="" style="shape=image;verticalLabelPosition=bottom;labelBackgroundColor=default;verticalAlign=top;aspect=fixed;imageAspect=0;image=data:image/svg+xml,PHN2ZyB4bWxucz0iaHR0cDovL3d3dy53My5vcmcvMjAwMC9zdmciIHZpZXdCb3g9IjAgMCA3Mi41NSA1OC45NiI+PHRpdGxlPlR3aXR0ZXI8L3RpdGxlPjxnIGRhdGEtbmFtZT0iTGF5ZXIgMiIgaWQ9IjQ1MDUzY2Y0LWIzMzMtNDRiZi1hNmQ0LTc0MmYxZDk3ODYwNyI+PGcgZGF0YS1uYW1lPSJMYXllciAxIiBpZD0iY2Y0MTI0NTAtN2RjYS00MjkxLTkxOTEtYWNhZDEyZjMwMzQ5Ij48cGF0aCBzdHlsZT0iZmlsbC1ydWxlOmV2ZW5vZGQiIGQ9Ik02NS4xMiwxNC42OEM2Ni4wNiwzNS42Miw1MC40NSw1OSwyMi44Miw1OUE0Mi4wNiw0Mi4wNiwwLDAsMSwwLDUyLjI3YTMwLDMwLDAsMCwwLDIyLTYuMTZBMTQuOSwxNC45LDAsMCwxLDguMTMsMzUuNzdhMTQuODUsMTQuODUsMCwwLDAsNi43Mi0uMjVBMTQuOTIsMTQuOTIsMCwwLDEsMi45MSwyMC43MywxNC44NSwxNC44NSwwLDAsMCw5LjY2LDIyLjYsMTQuOTEsMTQuOTEsMCwwLDEsNS4wNSwyLjcyLDQyLjI1LDQyLjI1LDAsMCwwLDM1LjczLDE4LjI4LDE0Ljg5LDE0Ljg5LDAsMCwxLDYxLjA5LDQuN2EyOS45MywyOS45MywwLDAsMCw5LjQ1LTMuNjFBMTQuOTMsMTQuOTMsMCwwLDEsNjQsOS4zMiwyOS45LDI5LjksMCwwLDAsNzIuNTUsNywzMC4wNiwzMC4wNiwwLDAsMSw2NS4xMiwxNC42OFoiLz48L2c+PC9nPjwvc3ZnPg==;" vertex="1" parent="1">
          <mxGeometry x="253.36" y="250" width="61.86" height="50" as="geometry" />
        </mxCell>
        <mxCell id="ycBOW7GdnXwQtTXTmGB2-2263" value="" style="shape=image;verticalLabelPosition=bottom;labelBackgroundColor=default;verticalAlign=top;aspect=fixed;imageAspect=0;image=data:image/svg+xml,PHN2ZyB4bWxucz0iaHR0cDovL3d3dy53My5vcmcvMjAwMC9zdmciIHZpZXdCb3g9IjAgMCA3NS43MSA2Ni44MyI+PHRpdGxlPkhvbWVBc3Npc3RhbnQ8L3RpdGxlPjxnIGRhdGEtbmFtZT0iTGF5ZXIgMiIgaWQ9ImRhOWZjMzJiLTBmNTgtNDA3OC1iMzIxLTJiNGYxZjI3NDFlOCI+PGcgZGF0YS1uYW1lPSJMYXllciAxIiBpZD0iYTNmNGFkMmYtY2YyNy00MTI2LWEzZTAtMWE4NmJjMzJlZDY4Ij48cGF0aCBkPSJNMjAuOTEsMzkuODhhMS4yNiwxLjI2LDAsMCwxLDEuMjMsMS4yNiwxLjIzLDEuMjMsMCwwLDEtMS4yMywxLjIzLDEuMjUsMS4yNSwwLDAsMS0xLjI1LTEuMjNBMS4yNywxLjI3LDAsMCwxLDIwLjkxLDM5Ljg4WiIvPjxwYXRoIGQ9Ik0yMS45LDQ5LjQ3YTEuMjMsMS4yMywwLDAsMSwxLjIzLDEuMjNBMS4yNSwxLjI1LDAsMCwxLDIxLjksNTJhMS4yNiwxLjI2LDAsMCwxLTEuMjUtMS4yNUExLjI1LDEuMjUsMCwwLDEsMjEuOSw0OS40N1oiLz48cGF0aCBkPSJNMjEuOSwyNy4wN2ExLjI1LDEuMjUsMCwwLDEtMS4yNS0xLjIzLDEuMjYsMS4yNiwwLDAsMSwxLjI1LTEuMjUsMS4yNSwxLjI1LDAsMCwxLDEuMjMsMS4yNUExLjIzLDEuMjMsMCwwLDEsMjEuOSwyNy4wN1oiLz48cGF0aCBkPSJNMjMuNDIsNTlhMS4yMywxLjIzLDAsMCwxLDEuMjUsMS4yMywxLjI0LDEuMjQsMCwxLDEtMi40OCwwQTEuMjMsMS4yMywwLDAsMSwyMy40Miw1OVoiLz48cGF0aCBkPSJNMjkuMjIsMzQuMTNhMS4yNSwxLjI1LDAsMSwxLDEuMjUtMS4yNkExLjI1LDEuMjUsMCwwLDEsMjkuMjIsMzQuMTNaIi8+PHBhdGggZD0iTTMxLjc1LDIwLjQzQTEuMjMsMS4yMywwLDAsMSwzMywyMS42NmExLjI0LDEuMjQsMCwxLDEtMi40OCwwQTEuMjMsMS4yMywwLDAsMSwzMS43NSwyMC40M1oiLz48cGF0aCBkPSJNMzEuODYsNTMuMzRhMS4yNSwxLjI1LDAsMSwxLDEuMjMtMS4yM0ExLjIzLDEuMjMsMCwwLDEsMzEuODYsNTMuMzRaIi8+PHBhdGggZD0iTTQzLjg0LDIyLjkyYTEuMjcsMS4yNywwLDAsMS0xLjI1LTEuMjYsMS4yNSwxLjI1LDAsMCwxLDEuMjUtMS4yMywxLjIzLDEuMjMsMCwwLDEsMS4yMywxLjIzQTEuMjYsMS4yNiwwLDAsMSw0My44NCwyMi45MloiLz48cGF0aCBkPSJNNDQuMTksNDMuOTNBMS4yNSwxLjI1LDAsMCwxLDQzLDQyLjY4YTEuMjIsMS4yMiwwLDAsMSwxLjIzLTEuMjMsMS4yNCwxLjI0LDAsMCwxLDEuMjUsMS4yM0ExLjI2LDEuMjYsMCwwLDEsNDQuMTksNDMuOTNaIi8+PHBhdGggZD0iTTQ1LjM1LDMyYTEuMjUsMS4yNSwwLDAsMSwxLjI0LDEuMjUsMS4yNSwxLjI1LDAsMCwxLTIuNDksMEExLjI1LDEuMjUsMCwwLDEsNDUuMzUsMzJaIi8+PHBhdGggZD0iTTUxLjE2LDI3LjJBMS4yNiwxLjI2LDAsMCwxLDQ5LjksMjZhMS4yNywxLjI3LDAsMCwxLDEuMjYtMS4yNUExLjI1LDEuMjUsMCwwLDEsNTIuMzksMjYsMS4yMywxLjIzLDAsMCwxLDUxLjE2LDI3LjJaIi8+PHBhdGggZD0iTTUyLjI4LDYxLjc4YTEuMjUsMS4yNSwwLDAsMSwwLTIuNDksMS4yNSwxLjI1LDAsMSwxLDAsMi40OVoiLz48cGF0aCBkPSJNNTcuMTIsNTIuMjhBMS4yNSwxLjI1LDAsMCwxLDU1Ljg4LDUxYTEuMjMsMS4yMywwLDAsMSwxLjI0LTEuMjNBMS4yNSwxLjI1LDAsMCwxLDU4LjM3LDUxLDEuMjYsMS4yNiwwLDAsMSw1Ny4xMiw1Mi4yOFoiLz48cGF0aCBkPSJNNTcuMiwzNC40NkExLjI0LDEuMjQsMCwwLDEsNTYsMzMuMjJhMS4yNCwxLjI0LDAsMSwxLDIuNDgsMEExLjIzLDEuMjMsMCwwLDEsNTcuMiwzNC40NloiLz48cGF0aCBkPSJNNzUuNzEsMzcuNzlhMS40MywxLjQzLDAsMCwxLTEuNDQsMS40NEg2Ny4xMVY2NC42MmEyLjIyLDIuMjIsMCwwLDEtMi4yMiwyLjIxSDM4LjEzbDYuMTktNS42NWg1LjU0QTIuNTIsMi41MiwwLDEsMCw1Mi4yOCw1OCwyLjU3LDIuNTcsMCwwLDAsNTAsNTkuNTNINDMuNjlsLTUuMTMsNC42OVY1Ny43M2w2LjA5LTUuODZINTQuNzRhMi41NiwyLjU2LDAsMCwwLDIuMzgsMS42OSwyLjUyLDIuNTIsMCwxLDAtMi4zOC0zLjM0aC04LjRMNTIsNDQuNzlWMzkuMTRsNC0zLjc0YTIuNDEsMi40MSwwLDAsMCwxLjI1LjMzLDIuNTIsMi41MiwwLDEsMC0yLjUyLTIuNTEsMi4zNCwyLjM0LDAsMCwwLC4xOSwxTDUyLDM2LjlWMjguMzVBMi41MiwyLjUyLDAsMSwwLDQ4LjYzLDI2YTIuNTMsMi41MywwLDAsMCwxLjY5LDIuMzh2OC41Mkw0Ny42LDM0LjMyYTIuMzgsMi4zOCwwLDAsMCwuMjYtMS4xLDIuNTIsMi41MiwwLDEsMC0yLjUxLDIuNTEsMi42NSwyLjY1LDAsMCwwLDEuMS0uMjRsMy44NywzLjY1djVsLTUuMTQsNC45NC0uMTUtNGEyLjUsMi41LDAsMSwwLTEuNjUsMGwuMjIsNS41Mi01LDQuODhWMjguM0w0MywyNGEzLjA2LDMuMDYsMCwwLDAsLjg4LjE1LDIuNTIsMi41MiwwLDEsMC0yLjUzLTIuNTNBMi40NywyLjQ3LDAsMCwwLDQxLjY4LDIzbC0zLjkxLDMuODEtMy43OC00YTIuMjYsMi4yNiwwLDAsMCwuMjYtMS4xLDIuNTIsMi41MiwwLDEsMC0yLjUsMi41MywyLjQxLDIuNDEsMCwwLDAsMS4xLS4yNmw0LjA2LDQuMzV2MTlMMzAsNDAuNjFWMzUuMjdhMi41NSwyLjU1LDAsMCwwLDEuNzItMi40LDIuNTMsMi41MywwLDAsMC01LjA2LDAsMi41NSwyLjU1LDAsMCwwLDEuNzIsMi40VjM5bC01LjY5LTUuNTNWMjguMjFhMi40OSwyLjQ5LDAsMCwwLDEuNjktMi4zNywyLjUyLDIuNTIsMCwxLDAtMy4zMiwyLjM3djZsNi4zMSw2LjE1SDIzLjI5YTIuNTIsMi41MiwwLDEsMCwwLDEuNjNoNS43OGw3Ljg0LDcuNjVWNjQuMTFsLTQuMjQtNC4xOFY1NC40OGEyLjUyLDIuNTIsMCwxLDAtMy4zNC0yLjM3QTIuNTUsMi41NSwwLDAsMCwzMSw1NC40OHYzLjgzTDI0LjI1LDUxLjZhMi40NCwyLjQ0LDAsMCwwLC4xNi0uOSwyLjUyLDIuNTIsMCwwLDAtNSwwLDIuNTUsMi41NSwwLDAsMCwyLjUzLDIuNTMsMi4zMSwyLjMxLDAsMCwwLDEuMy0uMzhsNi42Niw2LjZIMjUuODFhMi41MiwyLjUyLDAsMSwwLTIuMzksMy4zNCwyLjU1LDIuNTUsMCwwLDAsMi4zOS0xLjY5aDUuN2w1LjgyLDUuNzNIMTAuODFBMi4yMSwyLjIxLDAsMCwxLDguNiw2NC42MlYzOS4yM0gxLjQzYTEuNDEsMS40MSwwLDAsMS0xLS4zOUExLjQ5LDEuNDksMCwwLDEsMCwzNy43OWExLjQsMS40LDAsMCwxLC40Mi0xTDM2Ljg0LjQyYTEuNDIsMS40MiwwLDAsMSwyLDBsMTguOTIsMTguOVYxNS43YTEuMjgsMS4yOCwwLDAsMSwxLjI5LTEuMjhoNmExLjI4LDEuMjgsMCwwLDEsMS4yOSwxLjI4VjI2Ljc3YTEuMzQsMS4zNCwwLDAsMS0uMy44M2w5LjIsOS4xOUExLjM3LDEuMzcsMCwwLDEsNzUuNzEsMzcuNzlaIi8+PC9nPjwvZz48L3N2Zz4=;" vertex="1" parent="1">
          <mxGeometry x="191.64" y="175" width="56.72" height="50" as="geometry" />
        </mxCell>
      </root>
    </mxGraphModel>
  </diagram>
</mxfile>
